<svg width="165" height="46" viewBox="0 0 165 46" fill="none" xmlns="http://www.w3.org/2000/svg">
<path d="M23 0.75C31.1463 0.75 36.7329 2.19256 40.2734 5.73633C43.8139 9.28023 45.25 14.8671 45.25 23C45.25 31.1034 43.7894 36.6891 40.2373 40.2402C36.6852 43.7913 31.0996 45.25 23 45.25C14.9232 45.25 9.33794 43.7721 5.78027 40.2119C2.22274 36.6518 0.75 31.0667 0.75 23L0.753906 22.248C0.842224 14.5563 2.30901 9.20648 5.74414 5.76465C9.29023 2.2117 14.8763 0.75 23 0.75ZM30.4414 13.2871C30.3353 13.2803 30.2032 13.2878 30.0371 13.3047C25.9697 13.7178 22.6401 16.6324 21.6143 20.4863C21.5867 20.5894 21.4971 20.6634 21.3906 20.6709C21.2839 20.6782 21.184 20.6172 21.1426 20.5186C20.2026 18.2801 18.0299 16.6881 15.4746 16.5908L15.2266 16.5859C11.6842 16.5859 8.8125 19.4576 8.8125 23L8.82129 23.3301C8.99313 26.719 11.7949 29.4141 15.2266 29.4141L15.4746 29.4092C18.0298 29.3119 20.2025 27.7199 21.1426 25.4814L21.1836 25.415C21.2341 25.3564 21.3105 25.3236 21.3906 25.3291C21.4971 25.3366 21.5867 25.4106 21.6143 25.5137C22.6401 29.3675 25.9698 32.2822 30.0371 32.6953C30.2476 32.7167 30.3963 32.7218 30.5039 32.709C30.608 32.6966 30.6503 32.67 30.6719 32.6494C30.6951 32.627 30.7266 32.5797 30.75 32.4639C30.7738 32.3461 30.7842 32.1833 30.7842 31.9551V27.9717L30.7881 27.8154C30.8047 27.446 30.885 27.0438 31.1172 26.7158C31.3943 26.3247 31.8554 26.082 32.543 26.082H34.9316C35.0629 26.082 35.1481 26.0814 35.2129 26.0752C35.2742 26.0694 35.3 26.0601 35.3145 26.0527C35.3287 26.0454 35.3505 26.0306 35.3896 25.9854C35.4313 25.9372 35.48 25.8692 35.5547 25.7637L35.5566 25.7617C35.5572 25.7609 35.5584 25.7595 35.5596 25.7578C35.5619 25.7546 35.5649 25.7494 35.5693 25.7432C35.5786 25.7303 35.592 25.7108 35.6094 25.6865C35.6441 25.638 35.6942 25.5682 35.7549 25.4834C35.8761 25.3138 36.0409 25.0843 36.2129 24.8428C36.5581 24.358 36.9305 23.8318 37.0527 23.6494C37.1788 23.4613 37.1881 23.4041 37.1875 23.3818C37.1868 23.3575 37.1743 23.3134 37.0557 23.1436C36.9457 22.9862 36.572 22.4673 36.2236 21.9854C36.05 21.7452 35.8831 21.515 35.7598 21.3447C35.6981 21.2596 35.6467 21.1885 35.6113 21.1396C35.5938 21.1155 35.5797 21.0969 35.5703 21.084C35.5656 21.0775 35.563 21.0717 35.5605 21.0684L35.5566 21.0645L35.5557 21.0635C35.3966 20.8428 35.354 20.8 35.3145 20.7803C35.2993 20.7727 35.2731 20.7635 35.2119 20.7578C35.147 20.7518 35.062 20.751 34.9316 20.751H31.75C31.5329 20.751 31.44 20.8079 31.3906 20.8682C31.3319 20.9398 31.2842 21.0762 31.2842 21.334V24.2236C31.2842 24.3965 31.2843 24.578 31.2666 24.7461C31.2489 24.9146 31.2118 25.0893 31.125 25.2461C30.9343 25.5902 30.5669 25.749 30.0117 25.749C29.2013 25.7489 28.5576 25.4409 28.1201 24.9297C27.6868 24.4232 27.4717 23.7366 27.4717 23C27.4717 21.687 28.4471 20.3001 30.0117 20.2998C30.238 20.2998 30.4007 20.2861 30.5176 20.2627C30.6346 20.2392 30.6902 20.209 30.7168 20.1875C30.7547 20.1568 30.7842 20.1053 30.7842 19.876V13.8369C30.7842 13.4616 30.6994 13.37 30.6455 13.3369C30.608 13.314 30.5468 13.294 30.4414 13.2871ZM15.2266 20.5283C16.5915 20.5284 17.6973 21.6353 17.6973 23L17.6846 23.2529C17.5664 24.4157 16.6423 25.3406 15.4795 25.459L15.2266 25.4717C13.8617 25.4717 12.7549 24.3648 12.7549 23C12.7549 21.6351 13.8617 20.5283 15.2266 20.5283Z" fill="#FEFDF4" stroke="#0D0D0D" stroke-width="0.5" stroke-linejoin="round"/>
<mask id="path-2-outside-1_55_1371" maskUnits="userSpaceOnUse" x="51.8442" y="8.55566" width="113" height="29" fill="black">
<rect fill="white" x="51.8442" y="8.55566" width="113" height="29"/>
<path d="M88.4175 16.1953C90.1282 16.1953 91.6264 16.5056 92.9116 17.127C94.1969 17.7483 95.2144 18.6206 95.9634 19.7441C96.7124 20.8677 97.125 22.1871 97.2017 23.7021H92.0688C91.9241 22.7234 91.5417 21.9356 90.9204 21.3398C90.3076 20.7356 89.503 20.4336 88.5073 20.4336C87.6647 20.4336 86.9282 20.6635 86.2983 21.123C85.677 21.5742 85.1922 22.2343 84.8433 23.1025C84.4943 23.9707 84.3198 25.0217 84.3198 26.2559C84.3198 27.5071 84.4891 28.5715 84.8296 29.4482C85.1786 30.3248 85.6686 30.9926 86.2983 31.4521C86.9282 31.9118 87.6647 32.1416 88.5073 32.1416C89.1284 32.1416 89.6857 32.014 90.1792 31.7588C90.6814 31.5034 91.095 31.1326 91.4185 30.6475C91.7502 30.1539 91.9667 29.5623 92.0688 28.873H97.2017C97.1165 30.3711 96.708 31.6905 95.9761 32.8311C95.2526 33.9631 94.2528 34.8489 92.9761 35.4873C91.6993 36.1257 90.1878 36.4443 88.4429 36.4443C86.4343 36.4443 84.7062 36.0191 83.2593 35.168C81.8209 34.3083 80.7145 33.1163 79.9399 31.5928C79.1739 30.0692 78.7915 28.3153 78.7915 26.332C78.7916 24.3235 79.1782 22.5618 79.9526 21.0469C80.7357 19.5233 81.8472 18.3356 83.2856 17.4844C84.724 16.6249 86.4345 16.1953 88.4175 16.1953ZM120.813 16.1953C121.902 16.1953 122.945 16.3228 123.941 16.5781C124.945 16.8335 125.834 17.2294 126.609 17.7656C127.392 18.3019 128.009 18.9913 128.46 19.834C128.911 20.6681 129.137 21.6681 129.137 22.834V36.0615H123.979V33.3418H123.826C123.511 33.9546 123.09 34.4957 122.562 34.9639C122.034 35.4234 121.4 35.785 120.66 36.0488C119.919 36.3042 119.064 36.4316 118.093 36.4316C116.842 36.4316 115.726 36.2144 114.748 35.7803C113.769 35.3377 112.995 34.6867 112.424 33.8271C111.863 32.9589 111.582 31.8778 111.582 30.584C111.582 29.4945 111.782 28.5794 112.182 27.8389C112.582 27.0985 113.127 26.5028 113.816 26.0518C114.505 25.6006 115.289 25.2601 116.166 25.0303C117.051 24.8005 117.979 24.6385 118.949 24.5449C120.089 24.4258 121.009 24.315 121.707 24.2129C122.404 24.1022 122.911 23.9403 123.226 23.7275C123.541 23.5148 123.698 23.2 123.698 22.7832V22.7061C123.698 21.8976 123.443 21.2717 122.932 20.8291C122.43 20.3866 121.714 20.166 120.787 20.166C119.808 20.1661 119.029 20.3825 118.451 20.8164C117.872 21.242 117.489 21.7789 117.301 22.4258L112.271 22.0166C112.526 20.8251 113.029 19.7949 113.778 18.9268C114.527 18.0502 115.493 17.3783 116.676 16.9102C117.868 16.4336 119.247 16.1953 120.813 16.1953ZM65.0884 9.55566C67.3949 9.55571 69.4719 10.0833 71.3188 11.1387C73.1743 12.1856 74.638 13.7097 75.7104 15.71C76.7914 17.7102 77.3325 20.1359 77.3325 22.9873C77.3325 25.8387 76.7914 28.2644 75.7104 30.2646C74.638 32.2649 73.1743 33.7932 71.3188 34.8486C69.4719 35.8955 67.3949 36.4189 65.0884 36.4189C62.7647 36.4189 60.6786 35.8914 58.8315 34.8359C56.9846 33.7805 55.5251 32.2521 54.4526 30.252C53.3802 28.2517 52.8442 25.8302 52.8442 22.9873C52.8442 20.136 53.3803 17.7102 54.4526 15.71C55.5251 13.7098 56.9846 12.1856 58.8315 11.1387C60.6786 10.0832 62.7647 9.55566 65.0884 9.55566ZM106.347 16.4502H110.037V20.5361H106.347V30.0352C106.347 30.5373 106.423 30.9291 106.577 31.21C106.73 31.4822 106.943 31.6736 107.215 31.7842C107.496 31.8947 107.819 31.9502 108.185 31.9502C108.44 31.9502 108.696 31.9293 108.952 31.8867C109.207 31.8357 109.402 31.797 109.539 31.7715L110.394 35.8193C110.122 35.9044 109.738 36.0017 109.245 36.1123C108.751 36.2314 108.151 36.3045 107.445 36.3301C106.134 36.3811 104.985 36.2057 103.998 35.8057C103.019 35.4057 102.257 34.7848 101.712 33.9424C101.168 33.0997 100.899 32.0353 100.908 30.75V20.5361H98.2271V16.4502H100.908V11.752H106.347V16.4502ZM160.263 16.4502H163.954V20.5361H160.263V30.0352C160.263 30.5373 160.34 30.9291 160.494 31.21C160.647 31.4821 160.859 31.6736 161.131 31.7842C161.412 31.8948 161.736 31.9502 162.102 31.9502C162.357 31.9502 162.612 31.9292 162.868 31.8867C163.123 31.8356 163.319 31.797 163.456 31.7715L164.311 35.8193C164.039 35.9045 163.655 36.0017 163.162 36.1123C162.668 36.2314 162.068 36.3045 161.362 36.3301C160.051 36.3811 158.902 36.2057 157.915 35.8057C156.936 35.4056 156.173 34.785 155.628 33.9424C155.084 33.0997 154.816 32.0353 154.825 30.75V20.5361H152.143V16.4502H154.825V11.752H160.263V16.4502ZM143.547 16.1953C144.909 16.1953 146.097 16.493 147.11 17.0889C148.123 17.6847 148.91 18.5362 149.471 19.6426C150.033 20.7405 150.314 22.0509 150.314 23.5742V36.0615H144.875V24.5449C144.884 23.3448 144.577 22.4088 143.956 21.7363C143.334 21.0554 142.479 20.7148 141.389 20.7148C140.657 20.7149 140.01 20.8726 139.449 21.1875C138.896 21.5024 138.462 21.9622 138.147 22.5664C137.841 23.1622 137.683 23.8811 137.674 24.7236V36.0615H132.235V16.4502H137.418V19.9102H137.649C138.083 18.7697 138.81 17.867 139.832 17.2031C140.853 16.5307 142.092 16.1953 143.547 16.1953ZM123.736 26.9707C123.566 27.0813 123.331 27.1838 123.034 27.2773C122.744 27.3624 122.417 27.443 122.051 27.5195C121.685 27.5876 121.319 27.6514 120.953 27.7109C120.587 27.762 120.255 27.809 119.958 27.8516C119.319 27.9452 118.761 28.0945 118.285 28.2988C117.808 28.5031 117.437 28.7799 117.173 29.1289C116.91 29.4693 116.778 29.8948 116.778 30.4053C116.778 31.1458 117.046 31.712 117.583 32.1035C118.127 32.4865 118.817 32.6777 119.651 32.6777C120.451 32.6777 121.157 32.5209 121.77 32.2061C122.383 31.8826 122.863 31.448 123.212 30.9033C123.561 30.3586 123.736 29.7412 123.736 29.0518V26.9707ZM65.0884 14.4453C63.752 14.4453 62.5852 14.7733 61.5894 15.4287C60.5936 16.0841 59.8193 17.0463 59.2661 18.3145C58.7214 19.5827 58.4487 21.1403 58.4487 22.9873C58.4487 24.8343 58.7214 26.3919 59.2661 27.6602C59.8193 28.9283 60.5936 29.8905 61.5894 30.5459C62.5852 31.2013 63.752 31.5293 65.0884 31.5293C66.4246 31.5292 67.5906 31.2013 68.5864 30.5459C69.5823 29.8905 70.3522 28.9284 70.897 27.6602C71.4502 26.3919 71.727 24.8344 71.7271 22.9873C71.7271 21.1402 71.4502 19.5827 70.897 18.3145C70.3522 17.0462 69.5823 16.0841 68.5864 15.4287C67.5906 14.7733 66.4246 14.4454 65.0884 14.4453Z"/>
</mask>
<path d="M88.4175 16.1953C90.1282 16.1953 91.6264 16.5056 92.9116 17.127C94.1969 17.7483 95.2144 18.6206 95.9634 19.7441C96.7124 20.8677 97.125 22.1871 97.2017 23.7021H92.0688C91.9241 22.7234 91.5417 21.9356 90.9204 21.3398C90.3076 20.7356 89.503 20.4336 88.5073 20.4336C87.6647 20.4336 86.9282 20.6635 86.2983 21.123C85.677 21.5742 85.1922 22.2343 84.8433 23.1025C84.4943 23.9707 84.3198 25.0217 84.3198 26.2559C84.3198 27.5071 84.4891 28.5715 84.8296 29.4482C85.1786 30.3248 85.6686 30.9926 86.2983 31.4521C86.9282 31.9118 87.6647 32.1416 88.5073 32.1416C89.1284 32.1416 89.6857 32.014 90.1792 31.7588C90.6814 31.5034 91.095 31.1326 91.4185 30.6475C91.7502 30.1539 91.9667 29.5623 92.0688 28.873H97.2017C97.1165 30.3711 96.708 31.6905 95.9761 32.8311C95.2526 33.9631 94.2528 34.8489 92.9761 35.4873C91.6993 36.1257 90.1878 36.4443 88.4429 36.4443C86.4343 36.4443 84.7062 36.0191 83.2593 35.168C81.8209 34.3083 80.7145 33.1163 79.9399 31.5928C79.1739 30.0692 78.7915 28.3153 78.7915 26.332C78.7916 24.3235 79.1782 22.5618 79.9526 21.0469C80.7357 19.5233 81.8472 18.3356 83.2856 17.4844C84.724 16.6249 86.4345 16.1953 88.4175 16.1953ZM120.813 16.1953C121.902 16.1953 122.945 16.3228 123.941 16.5781C124.945 16.8335 125.834 17.2294 126.609 17.7656C127.392 18.3019 128.009 18.9913 128.46 19.834C128.911 20.6681 129.137 21.6681 129.137 22.834V36.0615H123.979V33.3418H123.826C123.511 33.9546 123.09 34.4957 122.562 34.9639C122.034 35.4234 121.4 35.785 120.66 36.0488C119.919 36.3042 119.064 36.4316 118.093 36.4316C116.842 36.4316 115.726 36.2144 114.748 35.7803C113.769 35.3377 112.995 34.6867 112.424 33.8271C111.863 32.9589 111.582 31.8778 111.582 30.584C111.582 29.4945 111.782 28.5794 112.182 27.8389C112.582 27.0985 113.127 26.5028 113.816 26.0518C114.505 25.6006 115.289 25.2601 116.166 25.0303C117.051 24.8005 117.979 24.6385 118.949 24.5449C120.089 24.4258 121.009 24.315 121.707 24.2129C122.404 24.1022 122.911 23.9403 123.226 23.7275C123.541 23.5148 123.698 23.2 123.698 22.7832V22.7061C123.698 21.8976 123.443 21.2717 122.932 20.8291C122.43 20.3866 121.714 20.166 120.787 20.166C119.808 20.1661 119.029 20.3825 118.451 20.8164C117.872 21.242 117.489 21.7789 117.301 22.4258L112.271 22.0166C112.526 20.8251 113.029 19.7949 113.778 18.9268C114.527 18.0502 115.493 17.3783 116.676 16.9102C117.868 16.4336 119.247 16.1953 120.813 16.1953ZM65.0884 9.55566C67.3949 9.55571 69.4719 10.0833 71.3188 11.1387C73.1743 12.1856 74.638 13.7097 75.7104 15.71C76.7914 17.7102 77.3325 20.1359 77.3325 22.9873C77.3325 25.8387 76.7914 28.2644 75.7104 30.2646C74.638 32.2649 73.1743 33.7932 71.3188 34.8486C69.4719 35.8955 67.3949 36.4189 65.0884 36.4189C62.7647 36.4189 60.6786 35.8914 58.8315 34.8359C56.9846 33.7805 55.5251 32.2521 54.4526 30.252C53.3802 28.2517 52.8442 25.8302 52.8442 22.9873C52.8442 20.136 53.3803 17.7102 54.4526 15.71C55.5251 13.7098 56.9846 12.1856 58.8315 11.1387C60.6786 10.0832 62.7647 9.55566 65.0884 9.55566ZM106.347 16.4502H110.037V20.5361H106.347V30.0352C106.347 30.5373 106.423 30.9291 106.577 31.21C106.73 31.4822 106.943 31.6736 107.215 31.7842C107.496 31.8947 107.819 31.9502 108.185 31.9502C108.44 31.9502 108.696 31.9293 108.952 31.8867C109.207 31.8357 109.402 31.797 109.539 31.7715L110.394 35.8193C110.122 35.9044 109.738 36.0017 109.245 36.1123C108.751 36.2314 108.151 36.3045 107.445 36.3301C106.134 36.3811 104.985 36.2057 103.998 35.8057C103.019 35.4057 102.257 34.7848 101.712 33.9424C101.168 33.0997 100.899 32.0353 100.908 30.75V20.5361H98.2271V16.4502H100.908V11.752H106.347V16.4502ZM160.263 16.4502H163.954V20.5361H160.263V30.0352C160.263 30.5373 160.34 30.9291 160.494 31.21C160.647 31.4821 160.859 31.6736 161.131 31.7842C161.412 31.8948 161.736 31.9502 162.102 31.9502C162.357 31.9502 162.612 31.9292 162.868 31.8867C163.123 31.8356 163.319 31.797 163.456 31.7715L164.311 35.8193C164.039 35.9045 163.655 36.0017 163.162 36.1123C162.668 36.2314 162.068 36.3045 161.362 36.3301C160.051 36.3811 158.902 36.2057 157.915 35.8057C156.936 35.4056 156.173 34.785 155.628 33.9424C155.084 33.0997 154.816 32.0353 154.825 30.75V20.5361H152.143V16.4502H154.825V11.752H160.263V16.4502ZM143.547 16.1953C144.909 16.1953 146.097 16.493 147.11 17.0889C148.123 17.6847 148.91 18.5362 149.471 19.6426C150.033 20.7405 150.314 22.0509 150.314 23.5742V36.0615H144.875V24.5449C144.884 23.3448 144.577 22.4088 143.956 21.7363C143.334 21.0554 142.479 20.7148 141.389 20.7148C140.657 20.7149 140.01 20.8726 139.449 21.1875C138.896 21.5024 138.462 21.9622 138.147 22.5664C137.841 23.1622 137.683 23.8811 137.674 24.7236V36.0615H132.235V16.4502H137.418V19.9102H137.649C138.083 18.7697 138.81 17.867 139.832 17.2031C140.853 16.5307 142.092 16.1953 143.547 16.1953ZM123.736 26.9707C123.566 27.0813 123.331 27.1838 123.034 27.2773C122.744 27.3624 122.417 27.443 122.051 27.5195C121.685 27.5876 121.319 27.6514 120.953 27.7109C120.587 27.762 120.255 27.809 119.958 27.8516C119.319 27.9452 118.761 28.0945 118.285 28.2988C117.808 28.5031 117.437 28.7799 117.173 29.1289C116.91 29.4693 116.778 29.8948 116.778 30.4053C116.778 31.1458 117.046 31.712 117.583 32.1035C118.127 32.4865 118.817 32.6777 119.651 32.6777C120.451 32.6777 121.157 32.5209 121.77 32.2061C122.383 31.8826 122.863 31.448 123.212 30.9033C123.561 30.3586 123.736 29.7412 123.736 29.0518V26.9707ZM65.0884 14.4453C63.752 14.4453 62.5852 14.7733 61.5894 15.4287C60.5936 16.0841 59.8193 17.0463 59.2661 18.3145C58.7214 19.5827 58.4487 21.1403 58.4487 22.9873C58.4487 24.8343 58.7214 26.3919 59.2661 27.6602C59.8193 28.9283 60.5936 29.8905 61.5894 30.5459C62.5852 31.2013 63.752 31.5293 65.0884 31.5293C66.4246 31.5292 67.5906 31.2013 68.5864 30.5459C69.5823 29.8905 70.3522 28.9284 70.897 27.6602C71.4502 26.3919 71.727 24.8344 71.7271 22.9873C71.7271 21.1402 71.4502 19.5827 70.897 18.3145C70.3522 17.0462 69.5823 16.0841 68.5864 15.4287C67.5906 14.7733 66.4246 14.4454 65.0884 14.4453Z" fill="#FEFDF4"/>
<path d="M88.4175 16.1953C90.1282 16.1953 91.6264 16.5056 92.9116 17.127C94.1969 17.7483 95.2144 18.6206 95.9634 19.7441C96.7124 20.8677 97.125 22.1871 97.2017 23.7021H92.0688C91.9241 22.7234 91.5417 21.9356 90.9204 21.3398C90.3076 20.7356 89.503 20.4336 88.5073 20.4336C87.6647 20.4336 86.9282 20.6635 86.2983 21.123C85.677 21.5742 85.1922 22.2343 84.8433 23.1025C84.4943 23.9707 84.3198 25.0217 84.3198 26.2559C84.3198 27.5071 84.4891 28.5715 84.8296 29.4482C85.1786 30.3248 85.6686 30.9926 86.2983 31.4521C86.9282 31.9118 87.6647 32.1416 88.5073 32.1416C89.1284 32.1416 89.6857 32.014 90.1792 31.7588C90.6814 31.5034 91.095 31.1326 91.4185 30.6475C91.7502 30.1539 91.9667 29.5623 92.0688 28.873H97.2017C97.1165 30.3711 96.708 31.6905 95.9761 32.8311C95.2526 33.9631 94.2528 34.8489 92.9761 35.4873C91.6993 36.1257 90.1878 36.4443 88.4429 36.4443C86.4343 36.4443 84.7062 36.0191 83.2593 35.168C81.8209 34.3083 80.7145 33.1163 79.9399 31.5928C79.1739 30.0692 78.7915 28.3153 78.7915 26.332C78.7916 24.3235 79.1782 22.5618 79.9526 21.0469C80.7357 19.5233 81.8472 18.3356 83.2856 17.4844C84.724 16.6249 86.4345 16.1953 88.4175 16.1953ZM120.813 16.1953C121.902 16.1953 122.945 16.3228 123.941 16.5781C124.945 16.8335 125.834 17.2294 126.609 17.7656C127.392 18.3019 128.009 18.9913 128.46 19.834C128.911 20.6681 129.137 21.6681 129.137 22.834V36.0615H123.979V33.3418H123.826C123.511 33.9546 123.09 34.4957 122.562 34.9639C122.034 35.4234 121.4 35.785 120.66 36.0488C119.919 36.3042 119.064 36.4316 118.093 36.4316C116.842 36.4316 115.726 36.2144 114.748 35.7803C113.769 35.3377 112.995 34.6867 112.424 33.8271C111.863 32.9589 111.582 31.8778 111.582 30.584C111.582 29.4945 111.782 28.5794 112.182 27.8389C112.582 27.0985 113.127 26.5028 113.816 26.0518C114.505 25.6006 115.289 25.2601 116.166 25.0303C117.051 24.8005 117.979 24.6385 118.949 24.5449C120.089 24.4258 121.009 24.315 121.707 24.2129C122.404 24.1022 122.911 23.9403 123.226 23.7275C123.541 23.5148 123.698 23.2 123.698 22.7832V22.7061C123.698 21.8976 123.443 21.2717 122.932 20.8291C122.43 20.3866 121.714 20.166 120.787 20.166C119.808 20.1661 119.029 20.3825 118.451 20.8164C117.872 21.242 117.489 21.7789 117.301 22.4258L112.271 22.0166C112.526 20.8251 113.029 19.7949 113.778 18.9268C114.527 18.0502 115.493 17.3783 116.676 16.9102C117.868 16.4336 119.247 16.1953 120.813 16.1953ZM65.0884 9.55566C67.3949 9.55571 69.4719 10.0833 71.3188 11.1387C73.1743 12.1856 74.638 13.7097 75.7104 15.71C76.7914 17.7102 77.3325 20.1359 77.3325 22.9873C77.3325 25.8387 76.7914 28.2644 75.7104 30.2646C74.638 32.2649 73.1743 33.7932 71.3188 34.8486C69.4719 35.8955 67.3949 36.4189 65.0884 36.4189C62.7647 36.4189 60.6786 35.8914 58.8315 34.8359C56.9846 33.7805 55.5251 32.2521 54.4526 30.252C53.3802 28.2517 52.8442 25.8302 52.8442 22.9873C52.8442 20.136 53.3803 17.7102 54.4526 15.71C55.5251 13.7098 56.9846 12.1856 58.8315 11.1387C60.6786 10.0832 62.7647 9.55566 65.0884 9.55566ZM106.347 16.4502H110.037V20.5361H106.347V30.0352C106.347 30.5373 106.423 30.9291 106.577 31.21C106.73 31.4822 106.943 31.6736 107.215 31.7842C107.496 31.8947 107.819 31.9502 108.185 31.9502C108.44 31.9502 108.696 31.9293 108.952 31.8867C109.207 31.8357 109.402 31.797 109.539 31.7715L110.394 35.8193C110.122 35.9044 109.738 36.0017 109.245 36.1123C108.751 36.2314 108.151 36.3045 107.445 36.3301C106.134 36.3811 104.985 36.2057 103.998 35.8057C103.019 35.4057 102.257 34.7848 101.712 33.9424C101.168 33.0997 100.899 32.0353 100.908 30.75V20.5361H98.2271V16.4502H100.908V11.752H106.347V16.4502ZM160.263 16.4502H163.954V20.5361H160.263V30.0352C160.263 30.5373 160.34 30.9291 160.494 31.21C160.647 31.4821 160.859 31.6736 161.131 31.7842C161.412 31.8948 161.736 31.9502 162.102 31.9502C162.357 31.9502 162.612 31.9292 162.868 31.8867C163.123 31.8356 163.319 31.797 163.456 31.7715L164.311 35.8193C164.039 35.9045 163.655 36.0017 163.162 36.1123C162.668 36.2314 162.068 36.3045 161.362 36.3301C160.051 36.3811 158.902 36.2057 157.915 35.8057C156.936 35.4056 156.173 34.785 155.628 33.9424C155.084 33.0997 154.816 32.0353 154.825 30.75V20.5361H152.143V16.4502H154.825V11.752H160.263V16.4502ZM143.547 16.1953C144.909 16.1953 146.097 16.493 147.11 17.0889C148.123 17.6847 148.91 18.5362 149.471 19.6426C150.033 20.7405 150.314 22.0509 150.314 23.5742V36.0615H144.875V24.5449C144.884 23.3448 144.577 22.4088 143.956 21.7363C143.334 21.0554 142.479 20.7148 141.389 20.7148C140.657 20.7149 140.01 20.8726 139.449 21.1875C138.896 21.5024 138.462 21.9622 138.147 22.5664C137.841 23.1622 137.683 23.8811 137.674 24.7236V36.0615H132.235V16.4502H137.418V19.9102H137.649C138.083 18.7697 138.81 17.867 139.832 17.2031C140.853 16.5307 142.092 16.1953 143.547 16.1953ZM123.736 26.9707C123.566 27.0813 123.331 27.1838 123.034 27.2773C122.744 27.3624 122.417 27.443 122.051 27.5195C121.685 27.5876 121.319 27.6514 120.953 27.7109C120.587 27.762 120.255 27.809 119.958 27.8516C119.319 27.9452 118.761 28.0945 118.285 28.2988C117.808 28.5031 117.437 28.7799 117.173 29.1289C116.91 29.4693 116.778 29.8948 116.778 30.4053C116.778 31.1458 117.046 31.712 117.583 32.1035C118.127 32.4865 118.817 32.6777 119.651 32.6777C120.451 32.6777 121.157 32.5209 121.77 32.2061C122.383 31.8826 122.863 31.448 123.212 30.9033C123.561 30.3586 123.736 29.7412 123.736 29.0518V26.9707ZM65.0884 14.4453C63.752 14.4453 62.5852 14.7733 61.5894 15.4287C60.5936 16.0841 59.8193 17.0463 59.2661 18.3145C58.7214 19.5827 58.4487 21.1403 58.4487 22.9873C58.4487 24.8343 58.7214 26.3919 59.2661 27.6602C59.8193 28.9283 60.5936 29.8905 61.5894 30.5459C62.5852 31.2013 63.752 31.5293 65.0884 31.5293C66.4246 31.5292 67.5906 31.2013 68.5864 30.5459C69.5823 29.8905 70.3522 28.9284 70.897 27.6602C71.4502 26.3919 71.727 24.8344 71.7271 22.9873C71.7271 21.1402 71.4502 19.5827 70.897 18.3145C70.3522 17.0462 69.5823 16.0841 68.5864 15.4287C67.5906 14.7733 66.4246 14.4454 65.0884 14.4453Z" stroke="#0D0D0D" stroke-linejoin="round" mask="url(#path-2-outside-1_55_1371)"/>
</svg>
